<?xml version="1.0" encoding="UTF-8" standalone="no"?>
<!-- Created with Inkscape (http://www.inkscape.org/) -->

<svg
   xmlns:dc="http://purl.org/dc/elements/1.1/"
   xmlns:cc="http://creativecommons.org/ns#"
   xmlns:rdf="http://www.w3.org/1999/02/22-rdf-syntax-ns#"
   xmlns:svg="http://www.w3.org/2000/svg"
   xmlns="http://www.w3.org/2000/svg"
   xmlns:sodipodi="http://sodipodi.sourceforge.net/DTD/sodipodi-0.dtd"
   xmlns:inkscape="http://www.inkscape.org/namespaces/inkscape"
   width="50.0886mm"
   height="49.27755mm"
   viewBox="0 0 177.47929 174.6055"
   id="svg2"
   version="1.1"
   inkscape:version="0.91 r13725"
   sodipodi:docname="school desk and chair with worksheet and pencil.svg">
  <defs
     id="defs4">
    <clipPath
       id="clipEmfPath1"
       clipPathUnits="userSpaceOnUse">
      <path
         inkscape:connector-curvature="0"
         id="path3341"
         d="m 6.25143,5.00114 348.82957,0 0,387.58886 -348.82957,0 z" />
    </clipPath>
    <pattern
       y="0"
       x="0"
       height="6"
       width="6"
       patternUnits="userSpaceOnUse"
       id="EMFhbasepattern" />
    <clipPath
       id="clipEmfPath1-2"
       clipPathUnits="userSpaceOnUse">
      <path
         inkscape:connector-curvature="0"
         id="path3572"
         d="m 6.25143,5.00114 348.82957,0 0,387.58886 -348.82957,0 z" />
    </clipPath>
    <pattern
       y="0"
       x="0"
       height="6"
       width="6"
       patternUnits="userSpaceOnUse"
       id="EMFhbasepattern-7" />
  </defs>
  <sodipodi:namedview
     id="base"
     pagecolor="#ffffff"
     bordercolor="#666666"
     borderopacity="1.0"
     inkscape:pageopacity="0.0"
     inkscape:pageshadow="2"
     inkscape:zoom="2.8"
     inkscape:cx="139.21308"
     inkscape:cy="99.605492"
     inkscape:document-units="px"
     inkscape:current-layer="layer1"
     showgrid="false"
     fit-margin-top="0"
     fit-margin-left="0"
     fit-margin-right="0"
     fit-margin-bottom="0"
     inkscape:window-width="1366"
     inkscape:window-height="706"
     inkscape:window-x="-8"
     inkscape:window-y="-8"
     inkscape:window-maximized="1" />
  <metadata
     id="metadata7">
    <rdf:RDF>
      <cc:Work
         rdf:about="">
        <dc:format>image/svg+xml</dc:format>
        <dc:type
           rdf:resource="http://purl.org/dc/dcmitype/StillImage" />
        <dc:title></dc:title>
      </cc:Work>
    </rdf:RDF>
  </metadata>
  <g
     inkscape:label="Layer 1"
     inkscape:groupmode="layer"
     id="layer1"
     transform="translate(-235.78693,-400.21935)">
    <path
       inkscape:connector-curvature="0"
       id="path3575"
       d="m 297.72021,402.11221 0,66.31375 5.18344,0 0,-66.31375 -5.18344,0 z"
       style="fill:#808080;fill-opacity:1;fill-rule:evenodd;stroke:none" />
    <path
       transform="matrix(0.51818748,0,0,0.45821876,230.42165,396.0251)"
       inkscape:connector-curvature="0"
       id="path3577"
       d="m 129.873,13.2843 0,144.7207 10.003,0 0,-144.7207 z"
       clip-path="url(#clipEmfPath1-2)"
       style="fill:none;stroke:#000000;stroke-width:3.36014342px;stroke-linecap:butt;stroke-linejoin:miter;stroke-miterlimit:8;stroke-dasharray:none;stroke-opacity:1" />
    <path
       inkscape:connector-curvature="0"
       id="path3579"
       d="m 342.50507,402.11221 0,66.31375 5.18343,0 0,-66.31375 -5.18343,0 z"
       style="fill:#808080;fill-opacity:1;fill-rule:evenodd;stroke:none" />
    <path
       transform="matrix(0.51818748,0,0,0.45821876,230.42165,396.0251)"
       inkscape:connector-curvature="0"
       id="path3581"
       d="m 216.299,13.2843 0,144.7207 10.003,0 0,-144.7207 z"
       clip-path="url(#clipEmfPath1-2)"
       style="fill:none;stroke:#000000;stroke-width:3.36014342px;stroke-linecap:butt;stroke-linejoin:miter;stroke-miterlimit:8;stroke-dasharray:none;stroke-opacity:1" />
    <path
       inkscape:connector-curvature="0"
       id="path3583"
       d="m 291.32266,465.34673 0,58.57914 5.18292,0 0,-58.57914 -5.18292,0 z"
       style="fill:#a6a6a6;fill-opacity:1;fill-rule:evenodd;stroke:none" />
    <path
       inkscape:connector-curvature="0"
       id="path3585"
       d="m 291.32266,465.34673 0,58.57914 5.18292,0 0,-58.57914 z"
       style="fill:none;stroke:#000000;stroke-width:1.63733566px;stroke-linecap:butt;stroke-linejoin:miter;stroke-miterlimit:8;stroke-dasharray:none;stroke-opacity:1" />
    <path
       inkscape:connector-curvature="0"
       id="path3587"
       d="m 296.46515,528.50944 -1.3364,-3.43756 -2.63187,0 -1.29599,3.43756 z"
       style="fill:#a6a6a6;fill-opacity:1;fill-rule:evenodd;stroke:none" />
    <path
       inkscape:connector-curvature="0"
       id="path3589"
       d="m 296.46515,528.50944 -1.3364,-3.43756 -2.63187,0 -1.29599,3.43756 z"
       style="fill:none;stroke:#000000;stroke-width:1.63733566px;stroke-linecap:butt;stroke-linejoin:miter;stroke-miterlimit:8;stroke-dasharray:none;stroke-opacity:1" />
    <path
       inkscape:connector-curvature="0"
       id="path3591"
       d="m 349.14616,465.84802 0,58.07785 5.26376,0 0,-58.07785 -5.26376,0 z"
       style="fill:#a6a6a6;fill-opacity:1;fill-rule:evenodd;stroke:none" />
    <path
       inkscape:connector-curvature="0"
       id="path3593"
       d="m 349.14616,465.84802 0,58.07785 5.26376,0 0,-58.07785 z"
       style="fill:none;stroke:#000000;stroke-width:1.63733566px;stroke-linecap:butt;stroke-linejoin:miter;stroke-miterlimit:8;stroke-dasharray:none;stroke-opacity:1" />
    <path
       inkscape:connector-curvature="0"
       id="path3595"
       d="m 354.40992,528.50944 -1.29547,-3.43756 -2.63187,0 -1.33642,3.43756 z"
       style="fill:#a6a6a6;fill-opacity:1;fill-rule:evenodd;stroke:none" />
    <path
       inkscape:connector-curvature="0"
       id="path3597"
       d="m 354.40992,528.50944 -1.29547,-3.43756 -2.63187,0 -1.33642,3.43756 z"
       style="fill:none;stroke:#000000;stroke-width:1.63733566px;stroke-linecap:butt;stroke-linejoin:miter;stroke-miterlimit:8;stroke-dasharray:none;stroke-opacity:1" />
    <path
       inkscape:connector-curvature="0"
       id="path3599"
       d="m 287.43522,401.03802 c -2.38883,0 -4.33256,1.71873 -4.33256,3.83131 l 0,15.43262 c 0,2.11256 1.94373,3.86708 4.33256,3.86708 l 67.70378,0 c 2.38885,0 4.33257,-1.7545 4.33257,-3.86708 l 0,-15.43262 c 0,-2.11258 -1.94372,-3.83131 -4.33257,-3.83131 z"
       style="fill:#fdece1;fill-opacity:1;fill-rule:evenodd;stroke:none" />
    <path
       inkscape:connector-curvature="0"
       id="path3601"
       d="m 287.43522,401.03802 c -2.38883,0 -4.33256,1.71873 -4.33256,3.83131 l 0,15.43262 c 0,2.11256 1.94373,3.86708 4.33256,3.86708 l 67.70378,0 c 2.38885,0 4.33257,-1.7545 4.33257,-3.86708 l 0,-15.43262 c 0,-2.11258 -1.94372,-3.83131 -4.33257,-3.83131 z"
       style="fill:none;stroke:#000000;stroke-width:1.63733566px;stroke-linecap:butt;stroke-linejoin:round;stroke-miterlimit:10;stroke-dasharray:none;stroke-opacity:1" />
    <path
       inkscape:connector-curvature="0"
       id="path3603"
       d="m 293.10419,495.96124 69.0402,19.40694 1.41723,-3.90265 -69.04018,-19.4074 z"
       style="fill:#a6a6a6;fill-opacity:1;fill-rule:evenodd;stroke:none" />
    <path
       inkscape:connector-curvature="0"
       id="path3605"
       d="m 293.10419,495.96124 69.0402,19.40694 1.41723,-3.90265 -69.04018,-19.4074 z"
       style="fill:none;stroke:#000000;stroke-width:1.63733566px;stroke-linecap:butt;stroke-linejoin:miter;stroke-miterlimit:8;stroke-dasharray:none;stroke-opacity:1" />
    <path
       inkscape:connector-curvature="0"
       id="path3607"
       d="m 350.96812,491.91517 -67.70379,21.16145 1.53901,3.86692 67.7038,-21.16146 z"
       style="fill:#a6a6a6;fill-opacity:1;fill-rule:evenodd;stroke:none" />
    <path
       inkscape:connector-curvature="0"
       id="path3609"
       d="m 350.96812,491.91517 -67.70379,21.16145 1.53901,3.86692 67.7038,-21.16146 z"
       style="fill:none;stroke:#000000;stroke-width:1.63733566px;stroke-linecap:butt;stroke-linejoin:miter;stroke-miterlimit:8;stroke-dasharray:none;stroke-opacity:1" />
    <path
       inkscape:connector-curvature="0"
       id="path3611"
       d="m 287.47564,546.4125 -1.61933,-4.26097 -3.32055,0 -1.61975,4.26097 z"
       style="fill:#a6a6a6;fill-opacity:1;fill-rule:evenodd;stroke:none" />
    <path
       inkscape:connector-curvature="0"
       id="path3613"
       d="m 287.47564,546.4125 -1.61933,-4.26097 -3.32055,0 -1.61975,4.26097 z"
       style="fill:none;stroke:#000000;stroke-width:1.63733566px;stroke-linecap:butt;stroke-linejoin:miter;stroke-miterlimit:8;stroke-dasharray:none;stroke-opacity:1" />
    <path
       inkscape:connector-curvature="0"
       id="path3615"
       d="m 281.2804,465.84802 0,75.22944 6.19524,0 0,-75.22944 -6.19524,0 z"
       style="fill:#a6a6a6;fill-opacity:1;fill-rule:evenodd;stroke:none" />
    <path
       inkscape:connector-curvature="0"
       id="path3617"
       d="m 281.2804,465.84802 0,75.22944 6.19524,0 0,-75.22944 z"
       style="fill:none;stroke:#000000;stroke-width:1.63733566px;stroke-linecap:butt;stroke-linejoin:miter;stroke-miterlimit:8;stroke-dasharray:none;stroke-opacity:1" />
    <path
       inkscape:connector-curvature="0"
       id="path3619"
       d="m 357.60921,466.95782 0,74.11964 6.55974,0 0,-74.11964 -6.55974,0 z"
       style="fill:#a6a6a6;fill-opacity:1;fill-rule:evenodd;stroke:none" />
    <path
       inkscape:connector-curvature="0"
       id="path3621"
       d="m 357.60921,466.95782 0,74.11964 6.55974,0 0,-74.11964 z"
       style="fill:none;stroke:#000000;stroke-width:1.63733566px;stroke-linecap:butt;stroke-linejoin:miter;stroke-miterlimit:8;stroke-dasharray:none;stroke-opacity:1" />
    <path
       inkscape:connector-curvature="0"
       id="path3623"
       d="m 364.16895,546.4125 -1.61986,-4.26097 -3.27961,0 -1.66027,4.26097 z"
       style="fill:#a6a6a6;fill-opacity:1;fill-rule:evenodd;stroke:none" />
    <path
       inkscape:connector-curvature="0"
       id="path3625"
       d="m 364.16895,546.4125 -1.61986,-4.26097 -3.27961,0 -1.66027,4.26097 z"
       style="fill:none;stroke:#000000;stroke-width:1.63733566px;stroke-linecap:butt;stroke-linejoin:miter;stroke-miterlimit:8;stroke-dasharray:none;stroke-opacity:1" />
    <path
       inkscape:connector-curvature="0"
       id="path3627"
       d="m 292.09217,490.30361 0,10.24074 3.56306,0 0,-10.24074 -3.56306,0 z"
       style="fill:#a6a6a6;fill-opacity:1;fill-rule:evenodd;stroke:none" />
    <path
       inkscape:connector-curvature="0"
       id="path3629"
       d="m 349.99651,490.30361 0,10.24074 3.52265,0 0,-10.24074 -3.52265,0 z"
       style="fill:#a6a6a6;fill-opacity:1;fill-rule:evenodd;stroke:none" />
    <path
       inkscape:connector-curvature="0"
       id="path3631"
       d="m 317.7238,499.39834 -0.7291,2.47071 6.72194,1.57581 0.72909,-2.47071 z"
       style="fill:#a6a6a6;fill-opacity:1;fill-rule:evenodd;stroke:none" />
    <path
       inkscape:connector-curvature="0"
       id="path3633"
       d="m 272.00758,477.16281 c -0.97179,0 -1.78168,0.71621 -1.78168,1.57536 0,0.89537 0.80989,1.6111 1.78168,1.6111 l 98.76151,0 c 1.01255,0 1.82247,-0.71573 1.82247,-1.6111 0,-0.85915 -0.80992,-1.57536 -1.82247,-1.57536 z"
       style="fill:#f5b183;fill-opacity:1;fill-rule:evenodd;stroke:none" />
    <path
       inkscape:connector-curvature="0"
       id="path3635"
       d="m 272.00758,477.16281 c -0.97179,0 -1.78168,0.71621 -1.78168,1.57536 0,0.89537 0.80989,1.6111 1.78168,1.6111 l 98.76151,0 c 1.01255,0 1.82247,-0.71573 1.82247,-1.6111 0,-0.85915 -0.80992,-1.57536 -1.82247,-1.57536 z"
       style="fill:none;stroke:#000000;stroke-width:1.63733566px;stroke-linecap:butt;stroke-linejoin:round;stroke-miterlimit:10;stroke-dasharray:none;stroke-opacity:1" />
    <path
       inkscape:connector-curvature="0"
       id="path3637"
       d="m 372.30811,477.4492 -9.79944,-15.68345 -82.20008,0 -9.79923,15.68345 z"
       style="fill:#f8cbad;fill-opacity:1;fill-rule:evenodd;stroke:none" />
    <path
       inkscape:connector-curvature="0"
       id="path3639"
       d="m 372.30811,477.4492 -9.79944,-15.68345 -82.20008,0 -9.79923,15.68345 z"
       style="fill:none;stroke:#000000;stroke-width:1.63733566px;stroke-linecap:butt;stroke-linejoin:miter;stroke-miterlimit:8;stroke-dasharray:none;stroke-opacity:1" />
    <path
       inkscape:connector-curvature="0"
       id="path3641"
       d="m 263.30167,464.16499 0,82.06836 6.19541,0 0,-82.06836 -6.19541,0 z"
       style="fill:#a6a6a6;fill-opacity:1;fill-rule:evenodd;stroke:none" />
    <path
       inkscape:connector-curvature="0"
       id="path3643"
       d="m 263.30167,464.16499 0,82.06836 6.19541,0 0,-82.06836 z"
       style="fill:none;stroke:#000000;stroke-width:1.63733566px;stroke-linecap:butt;stroke-linejoin:miter;stroke-miterlimit:8;stroke-dasharray:none;stroke-opacity:1" />
    <path
       inkscape:connector-curvature="0"
       id="path3645"
       d="m 269.45656,551.89096 -1.57919,-4.22523 -3.15845,0 -1.53871,4.22523 z"
       style="fill:#a6a6a6;fill-opacity:1;fill-rule:evenodd;stroke:none" />
    <path
       inkscape:connector-curvature="0"
       id="path3647"
       d="m 269.45656,551.89096 -1.57919,-4.22523 -3.15845,0 -1.53871,4.22523 z"
       style="fill:none;stroke:#000000;stroke-width:1.63733566px;stroke-linecap:butt;stroke-linejoin:miter;stroke-miterlimit:8;stroke-dasharray:none;stroke-opacity:1" />
    <path
       inkscape:connector-curvature="0"
       id="path3649"
       d="m 380.48719,464.16499 0,82.06836 6.19545,0 0,-82.06836 -6.19545,0 z"
       style="fill:#a6a6a6;fill-opacity:1;fill-rule:evenodd;stroke:none" />
    <path
       inkscape:connector-curvature="0"
       id="path3651"
       d="m 380.48719,464.16499 0,82.06836 6.19545,0 0,-82.06836 z"
       style="fill:none;stroke:#000000;stroke-width:1.63733566px;stroke-linecap:butt;stroke-linejoin:miter;stroke-miterlimit:8;stroke-dasharray:none;stroke-opacity:1" />
    <path
       inkscape:connector-curvature="0"
       id="path3653"
       d="m 386.764,551.89096 -1.57945,-4.22523 -3.15835,0 -1.53901,4.22523 z"
       style="fill:#a6a6a6;fill-opacity:1;fill-rule:evenodd;stroke:none" />
    <path
       inkscape:connector-curvature="0"
       id="path3655"
       d="m 386.764,551.89096 -1.57945,-4.22523 -3.15835,0 -1.53901,4.22523 z"
       style="fill:none;stroke:#000000;stroke-width:1.63733566px;stroke-linecap:butt;stroke-linejoin:miter;stroke-miterlimit:8;stroke-dasharray:none;stroke-opacity:1" />
    <path
       inkscape:connector-curvature="0"
       id="path3657"
       d="m 251.39684,469.96558 0,97.46542 7.36967,0 0,-97.46542 -7.36967,0 z"
       style="fill:#a6a6a6;fill-opacity:1;fill-rule:evenodd;stroke:none" />
    <path
       inkscape:connector-curvature="0"
       id="path3659"
       d="m 251.39684,469.96558 0,97.46542 7.36967,0 0,-97.46542 z"
       style="fill:none;stroke:#000000;stroke-width:1.63733566px;stroke-linecap:butt;stroke-linejoin:miter;stroke-miterlimit:8;stroke-dasharray:none;stroke-opacity:1" />
    <path
       inkscape:connector-curvature="0"
       id="path3661"
       d="m 258.76651,574.055 -1.98414,-5.2993 -3.8873,0 -1.94367,5.2993 z"
       style="fill:#a6a6a6;fill-opacity:1;fill-rule:evenodd;stroke:none" />
    <path
       transform="matrix(0.51818748,0,0,0.45821876,230.42165,396.0251)"
       inkscape:connector-curvature="0"
       id="path3663"
       d="m 54.7,388.526 -3.829,-11.565 -7.5017,0 -3.7509,11.565 z"
       clip-path="url(#clipEmfPath1-2)"
       style="fill:none;stroke:#000000;stroke-width:3.36014342px;stroke-linecap:butt;stroke-linejoin:miter;stroke-miterlimit:8;stroke-dasharray:none;stroke-opacity:1" />
    <path
       inkscape:connector-curvature="0"
       id="path3665"
       d="m 390.57008,469.96558 0,97.46542 7.36965,0 0,-97.46542 -7.36965,0 z"
       style="fill:#a6a6a6;fill-opacity:1;fill-rule:evenodd;stroke:none" />
    <path
       inkscape:connector-curvature="0"
       id="path3667"
       d="m 390.57008,469.96558 0,97.46542 7.36965,0 0,-97.46542 z"
       style="fill:none;stroke:#000000;stroke-width:1.63733566px;stroke-linecap:butt;stroke-linejoin:miter;stroke-miterlimit:8;stroke-dasharray:none;stroke-opacity:1" />
    <path
       inkscape:connector-curvature="0"
       id="path3669"
       d="m 398.38537,574.055 -1.94371,-5.2993 -3.92787,0 -1.94371,5.2993 z"
       style="fill:#a6a6a6;fill-opacity:1;fill-rule:evenodd;stroke:none" />
    <path
       transform="matrix(0.51818748,0,0,0.45821876,230.42165,396.0251)"
       inkscape:connector-curvature="0"
       id="path3671"
       d="m 324.137,388.526 -3.751,-11.565 -7.58,0 -3.751,11.565 z"
       clip-path="url(#clipEmfPath1-2)"
       style="fill:none;stroke:#000000;stroke-width:3.36014342px;stroke-linecap:butt;stroke-linejoin:miter;stroke-miterlimit:8;stroke-dasharray:none;stroke-opacity:1" />
    <path
       inkscape:connector-curvature="0"
       id="path3673"
       d="m 246.37575,481.13741 c -1.86266,0 -3.40137,1.36045 -3.40137,3.00775 l 0,12.03098 c 0,1.68258 1.53871,3.00775 3.40137,3.00775 l 157.03036,0 c 1.9033,0 3.40137,-1.32517 3.40137,-3.00775 l 0,-12.03098 c 0,-1.6473 -1.49807,-3.00775 -3.40137,-3.00775 z"
       style="fill:#b35e25;fill-opacity:1;fill-rule:evenodd;stroke:none" />
    <path
       inkscape:connector-curvature="0"
       id="path3675"
       d="m 246.37575,481.13741 c -1.86266,0 -3.40137,1.36045 -3.40137,3.00775 l 0,12.03098 c 0,1.68258 1.53871,3.00775 3.40137,3.00775 l 157.03036,0 c 1.9033,0 3.40137,-1.32517 3.40137,-3.00775 l 0,-12.03098 c 0,-1.6473 -1.49807,-3.00775 -3.40137,-3.00775 z"
       style="fill:none;stroke:#000000;stroke-width:1.63733566px;stroke-linecap:butt;stroke-linejoin:round;stroke-miterlimit:10;stroke-dasharray:none;stroke-opacity:1" />
    <path
       inkscape:connector-curvature="0"
       id="path3677"
       d="m 239.53247,478.52327 c -1.57917,0 -2.87496,1.146 -2.87496,2.5422 0,1.39664 1.29579,2.54219 2.87496,2.54219 l 170.02866,0 c 1.57943,0 2.83449,-1.14555 2.83449,-2.54219 0,-1.3962 -1.25506,-2.5422 -2.83449,-2.5422 z"
       style="fill:#fce5d6;fill-opacity:1;fill-rule:evenodd;stroke:none" />
    <path
       transform="matrix(0.51818748,0,0,0.45821876,230.42165,396.0251)"
       inkscape:connector-curvature="0"
       id="path3679"
       d="m 17.5821,180.041 c -3.0475,0 -5.5481,2.501 -5.5481,5.548 0,3.048 2.5006,5.548 5.5481,5.548 l 328.1219,0 c 3.048,0 5.47,-2.5 5.47,-5.548 0,-3.047 -2.422,-5.548 -5.47,-5.548 z"
       clip-path="url(#clipEmfPath1-2)"
       style="fill:none;stroke:#000000;stroke-width:3.36014342px;stroke-linecap:butt;stroke-linejoin:round;stroke-miterlimit:10;stroke-dasharray:none;stroke-opacity:1" />
    <path
       inkscape:connector-curvature="0"
       id="path3681"
       d="m 411.94998,478.98882 -10.12281,-28.17953 -154.5606,0 -10.12316,28.17953 z"
       style="fill:#f8cbad;fill-opacity:1;fill-rule:evenodd;stroke:none" />
    <path
       transform="matrix(0.51818748,0,0,0.45821876,230.42165,396.0251)"
       inkscape:connector-curvature="0"
       id="path3683"
       d="m 350.314,181.057 -19.535,-61.498 -298.2716,0 -19.5357,61.498 z"
       clip-path="url(#clipEmfPath1-2)"
       style="fill:none;stroke:#000000;stroke-width:3.36014342px;stroke-linecap:butt;stroke-linejoin:miter;stroke-miterlimit:8;stroke-dasharray:none;stroke-opacity:1" />
    <path
       inkscape:connector-curvature="0"
       id="path3685"
       d="m 257.1468,473.11674 c -0.76935,0 -1.37677,0.53704 -1.37677,1.21703 0,0.64472 0.60742,1.18174 1.37677,1.18174 l 134.35446,0 c 0.7695,0 1.37683,-0.53702 1.37683,-1.18174 0,-0.67999 -0.60733,-1.21703 -1.37683,-1.21703 z"
       style="fill:#f5b183;fill-opacity:1;fill-rule:evenodd;stroke:none" />
    <path
       inkscape:connector-curvature="0"
       id="path3687"
       d="m 257.1468,473.11674 c -0.76935,0 -1.37677,0.53704 -1.37677,1.21703 0,0.64472 0.60742,1.18174 1.37677,1.18174 l 134.35446,0 c 0.7695,0 1.37683,-0.53702 1.37683,-1.18174 0,-0.67999 -0.60733,-1.21703 -1.37683,-1.21703 z"
       style="fill:none;stroke:#000000;stroke-width:1.63733566px;stroke-linecap:butt;stroke-linejoin:round;stroke-miterlimit:10;stroke-dasharray:none;stroke-opacity:1" />
    <path
       inkscape:connector-curvature="0"
       id="path3689"
       d="m 354.89597,470.43113 -3.15834,-17.04391 -32.0701,0 -3.15837,17.04391 z"
       style="fill:#ffffff;fill-opacity:1;fill-rule:evenodd;stroke:none" />
    <path
       inkscape:connector-curvature="0"
       id="path3691"
       d="m 354.89597,470.43113 -3.15834,-17.04391 -32.0701,0 -3.15837,17.04391 z"
       style="fill:none;stroke:#000000;stroke-width:1.63733566px;stroke-linecap:butt;stroke-linejoin:miter;stroke-miterlimit:8;stroke-dasharray:none;stroke-opacity:1" />
    <path
       inkscape:connector-curvature="0"
       id="path3693"
       d="m 321.65167,461.3364 c 0.16176,0.28639 0.0808,0.68 0.44511,0.85916 0.7695,0.35786 2.63239,0.57278 2.63239,0.57278 0.76899,-0.0714 1.5385,-0.0714 2.22717,-0.28639 0.56691,-0.17916 0.85035,-0.60853 1.33589,-0.85916 1.13381,-0.60897 1.29599,-0.57323 2.63239,-0.85962 0.44513,0.10764 0.85035,0.28639 1.33589,0.28639 0.60733,0 1.3364,-0.57278 1.74112,-0.28639 0.44564,0.28639 -0.9312,0.9311 -0.44513,1.14601 0.60731,0.28638 1.49807,-0.17917 2.22717,-0.28639 0.93118,-0.39407 1.82194,-1.07452 3.07752,-0.28639 0.44512,0.28639 0.28344,0.78768 0.44512,1.14555 0.76951,-0.17916 4.33257,-1.03833 5.30469,-0.85916 0.44511,0.10715 0.0808,0.64425 0.44511,0.85916 0.3244,0.2149 0.85035,0.2149 1.29599,0.28639 2.95575,-0.60853 1.74112,-0.57278 3.52264,-0.57278"
       style="fill:none;stroke:#000000;stroke-width:1.63733566px;stroke-linecap:butt;stroke-linejoin:round;stroke-miterlimit:10;stroke-dasharray:none;stroke-opacity:1" />
    <path
       inkscape:connector-curvature="0"
       id="path3695"
       d="m 321.73249,466.27737 c 0.0808,0.17916 0.12174,0.39406 0.24303,0.57323 0.56691,1.00258 0.56691,0.57278 2.14634,0.39361 0.2021,-0.14304 0.44513,-0.25064 0.64774,-0.39361 0.24303,-0.17917 0.36428,-0.57323 0.64772,-0.57323 0.28346,0 0.28346,0.39406 0.44566,0.57323 0.48554,-0.0719 1.41723,-0.14337 1.94371,-0.39407 0.24251,-0.10716 0.44512,-0.2149 0.64774,-0.35786 0.24302,-0.17916 0.40469,-0.39408 0.64774,-0.57323 0.4052,0.10765 0.85033,0.25064 1.29597,0.35832 0.2021,0.0714 0.40471,0.14304 0.64774,0.21491 0.28345,0.0357 0.56689,0.10716 0.85035,0.1787 0.36428,0.0719 0.7291,0.10764 1.09338,0.17916 0.20261,0.0714 0.40469,0.14337 0.64774,0.2149 0.36428,0.0714 0.72907,0.10716 1.05294,0.17917 0.52648,-0.0719 1.01202,-0.25064 1.5385,-0.17917 0.7291,0.0357 0.60731,0.60852 1.05295,0.93111 0.20261,0.14304 0.44566,0.14304 0.64774,0.21445 1.82247,-0.53704 -1.05243,0.25063 2.18676,-0.39361 0.44563,-0.10765 0.85035,-0.32213 1.29599,-0.39407 1.29545,-0.2149 0.72856,-0.0714 1.70068,-0.35788 0.24251,0.0357 0.44513,0.10716 0.64774,0.17917 0.28344,0.0714 0.60731,0.0714 0.89076,0.17871 0.24303,0.10765 0.4047,0.25064 0.64774,0.39407 3.32055,-0.2149 2.14633,-0.17917 3.4418,-0.17917"
       style="fill:none;stroke:#000000;stroke-width:1.63733566px;stroke-linecap:butt;stroke-linejoin:round;stroke-miterlimit:10;stroke-dasharray:none;stroke-opacity:1" />
    <path
       inkscape:connector-curvature="0"
       id="path3697"
       d="m 322.38023,457.50478 c 0.16213,0.17916 0.20262,0.50129 0.44564,0.57323 0.7291,0.21444 1.37684,-0.71621 1.74112,-0.96685 0.20261,-0.14336 0.40522,-0.25065 0.64774,-0.39406 0.0813,0.25064 0.0409,0.57278 0.20259,0.78768 0.16213,0.14336 0.44566,0.2149 0.64774,0.17916 0.64825,-0.0714 1.21515,-0.46555 1.74163,-0.75194 0.12118,-0.2149 0.2021,-0.4298 0.40471,-0.57278 0.20262,-0.14336 0.44564,-0.10764 0.64772,-0.2149 1.70071,-0.71619 -0.32385,-0.0714 1.29599,-0.57278 0.16176,0.21445 0.32387,0.39362 0.44513,0.57278 0.12173,0.17917 0.0813,0.4298 0.20261,0.57278 0.16213,0.17916 0.44564,0.25064 0.64774,0.39406 1.74163,-0.50128 -0.40471,0 1.29599,0 0.60731,0 1.25505,-0.35833 1.7411,-0.57323 0.20261,0.28685 0.72909,1.03879 1.09338,1.14601 0.52648,0.17917 1.13379,0.14337 1.70068,0.17917 0.24305,0.0714 0.44566,0.2149 0.64774,0.2149 0.56689,-0.0719 1.05297,-0.57323 1.53902,-0.78813 0.2021,-0.0714 0.44512,-0.0714 0.64774,-0.17872 0.44563,-0.2149 0.85035,-0.50128 1.29599,-0.75194 0.20208,-0.14336 0.64773,-0.39406 0.64773,-0.39406 0,0.10764 -0.0808,1.68303 0.85034,1.32472 0.24302,-0.0714 0.28345,-0.35788 0.44512,-0.57278 0.28346,0.0714 0.60784,0.0357 0.85035,0.2149 0.20262,0.10716 0.041,0.4298 0.20262,0.57278 0.16213,0.14336 0.44564,0.10764 0.64772,0.17916 0.52648,-0.0714 1.01255,-0.10716 1.53902,-0.17916 0.44512,-0.10716 0.68816,-0.2149 1.05296,-0.39362"
       style="fill:none;stroke:#000000;stroke-width:1.63733566px;stroke-linecap:butt;stroke-linejoin:round;stroke-miterlimit:10;stroke-dasharray:none;stroke-opacity:1" />
    <path
       inkscape:connector-curvature="0"
       id="path3699"
       d="m 273.38436,464.80923 0.44544,2.8648 28.74998,-3.7597 -0.44564,-2.86477 z"
       style="fill:#ffc000;fill-opacity:1;fill-rule:evenodd;stroke:none" />
    <path
       inkscape:connector-curvature="0"
       id="path3701"
       d="m 273.38436,464.80923 0.44544,2.8648 28.74998,-3.7597 -0.44564,-2.86477 z"
       style="fill:none;stroke:#000000;stroke-width:1.21848238px;stroke-linecap:butt;stroke-linejoin:miter;stroke-miterlimit:8;stroke-dasharray:none;stroke-opacity:1" />
    <path
       inkscape:connector-curvature="0"
       id="path3703"
       d="m 306.4667,461.90918 -4.08954,-0.82343 0.44513,2.61368 z"
       style="fill:#ffe699;fill-opacity:1;fill-rule:evenodd;stroke:none" />
    <path
       inkscape:connector-curvature="0"
       id="path3705"
       d="m 306.4667,461.90918 -4.08954,-0.82343 0.44513,2.61368 z"
       style="fill:none;stroke:#000000;stroke-width:1.21848238px;stroke-linecap:butt;stroke-linejoin:miter;stroke-miterlimit:8;stroke-dasharray:none;stroke-opacity:1" />
    <path
       inkscape:connector-curvature="0"
       id="path3707"
       d="m 269.82099,465.31052 c -0.32391,0.0719 -0.52637,0.3226 -0.4859,0.60899 l 0.28345,1.64683 c 0.0404,0.28684 0.32393,0.46555 0.64789,0.42981 l 0.85035,-0.10715 c 0.32391,-0.0357 0.52637,-0.28639 0.4859,-0.57324 l -0.28345,-1.64684 c -0.0404,-0.28639 -0.32393,-0.50129 -0.64789,-0.46555 z"
       style="fill:#ff7c80;fill-opacity:1;fill-rule:evenodd;stroke:none" />
    <path
       inkscape:connector-curvature="0"
       id="path3709"
       d="m 269.82099,465.31052 c -0.32391,0.0719 -0.52637,0.3226 -0.4859,0.60899 l 0.28345,1.64683 c 0.0404,0.28684 0.32393,0.46555 0.64789,0.42981 l 0.85035,-0.10715 c 0.32391,-0.0357 0.52637,-0.28639 0.4859,-0.57324 l -0.28345,-1.64684 c -0.0404,-0.28639 -0.32393,-0.50129 -0.64789,-0.46555 z"
       style="fill:none;stroke:#000000;stroke-width:1.63733566px;stroke-linecap:butt;stroke-linejoin:round;stroke-miterlimit:10;stroke-dasharray:none;stroke-opacity:1" />
    <path
       inkscape:connector-curvature="0"
       id="path3711"
       d="m 270.75233,465.13183 0.48591,2.86432 2.83449,-0.35787 -0.4859,-2.86478 z"
       style="fill:#c0c0c0;fill-opacity:1;fill-rule:evenodd;stroke:none" />
    <path
       inkscape:connector-curvature="0"
       id="path3713"
       d="m 270.75233,465.13183 0.48591,2.86432 2.83449,-0.35787 -0.4859,-2.86478 z"
       style="fill:none;stroke:#000000;stroke-width:1.21848238px;stroke-linecap:butt;stroke-linejoin:miter;stroke-miterlimit:8;stroke-dasharray:none;stroke-opacity:1" />
    <path
       inkscape:connector-curvature="0"
       id="path3715"
       d="m 304.88777,461.69427 c 0.0404,0.42981 0.0404,0.85915 0.24304,0.89536 0.20208,0 0.89077,-0.60897 0.89077,-0.75194 0,-0.14337 -0.44564,-0.14337 -0.85035,-0.17917 z"
       style="fill:#000000;fill-opacity:1;fill-rule:evenodd;stroke:none" />
  </g>
</svg>
